<svg width="22" height="24" viewBox="0 0 22 24" fill="none" xmlns="http://www.w3.org/2000/svg">
<path d="M21.5781 17.0156C20.6875 16.0312 18.9531 14.5781 18.9531 9.75C18.9531 6.14062 16.4219 3.23438 12.9531 2.48438V1.5C12.9531 0.703125 12.2969 0 11.5 0C10.6562 0 10 0.703125 10 1.5V2.48438C6.53125 3.23438 4 6.14062 4 9.75C4 14.5781 2.26562 16.0312 1.375 17.0156C1.09375 17.2969 0.953125 17.6719 1 18C1 18.7969 1.5625 19.5 2.5 19.5H20.4531C21.3906 19.5 21.9531 18.7969 22 18C22 17.6719 21.8594 17.2969 21.5781 17.0156ZM4.14062 17.25C5.125 15.9844 6.20312 13.7812 6.25 9.79688C6.25 9.79688 6.25 9.79688 6.25 9.75C6.25 6.89062 8.59375 4.5 11.5 4.5C14.3594 4.5 16.75 6.89062 16.75 9.75C16.75 9.79688 16.7031 9.79688 16.7031 9.79688C16.75 13.7812 17.8281 15.9844 18.8125 17.25H4.14062ZM11.5 24C13.1406 24 14.4531 22.6875 14.4531 21H8.5C8.5 22.6875 9.8125 24 11.5 24Z" fill="#DEDEDE"/>
</svg>
