<svg width="22" height="20" viewBox="0 0 22 20" fill="none" xmlns="http://www.w3.org/2000/svg">
<path d="M1.25 4.1875H20.75C21.125 4.1875 21.5 3.85938 21.5 3.4375V1.5625C21.5 1.1875 21.125 0.8125 20.75 0.8125H1.25C0.828125 0.8125 0.5 1.1875 0.5 1.5625V3.4375C0.5 3.85938 0.828125 4.1875 1.25 4.1875ZM1.25 11.6875H20.75C21.125 11.6875 21.5 11.3594 21.5 10.9375V9.0625C21.5 8.6875 21.125 8.3125 20.75 8.3125H1.25C0.828125 8.3125 0.5 8.6875 0.5 9.0625V10.9375C0.5 11.3594 0.828125 11.6875 1.25 11.6875ZM1.25 19.1875H20.75C21.125 19.1875 21.5 18.8594 21.5 18.4375V16.5625C21.5 16.1875 21.125 15.8125 20.75 15.8125H1.25C0.828125 15.8125 0.5 16.1875 0.5 16.5625V18.4375C0.5 18.8594 0.828125 19.1875 1.25 19.1875Z" fill="white"/>
</svg>
