<svg width="24" height="24" viewBox="0 0 24 24" fill="none" xmlns="http://www.w3.org/2000/svg">
<path d="M12 0.375C5.57812 0.375 0.375 5.625 0.375 12C0.375 18.4219 5.57812 23.625 12 23.625C18.375 23.625 23.625 18.4219 23.625 12C23.625 5.625 18.375 0.375 12 0.375ZM12 21.375C6.79687 21.375 2.625 17.2031 2.625 12C2.625 6.84375 6.79687 2.625 12 2.625C17.1562 2.625 21.375 6.84375 21.375 12C21.375 17.2031 17.1562 21.375 12 21.375ZM17.0156 9.42188C17.0156 7.07813 14.5312 5.25 12.2344 5.25C10.0312 5.25 8.625 6.1875 7.54687 7.82813C7.35937 8.0625 7.40625 8.39063 7.64062 8.57813L8.95312 9.5625C9.1875 9.75 9.5625 9.70313 9.75 9.46875C10.4531 8.57813 10.9687 8.0625 12.0469 8.0625C12.8906 8.0625 13.9219 8.57813 13.9219 9.42188C13.9219 10.0313 13.4062 10.3125 12.5625 10.7813C11.625 11.3438 10.3594 12 10.3594 13.6875V14.0625C10.3594 14.3906 10.5937 14.625 10.9219 14.625H13.0312C13.3594 14.625 13.5937 14.3906 13.5937 14.0625V13.7813C13.5937 12.6094 17.0156 12.5625 17.0156 9.42188ZM13.9687 17.25C13.9687 16.1719 13.0781 15.2812 12 15.2812C10.875 15.2812 10.0312 16.1719 10.0312 17.25C10.0312 18.375 10.875 19.2188 12 19.2188C13.0781 19.2188 13.9687 18.375 13.9687 17.25Z" fill="#DEDEDE"/>
</svg>
